<svg width="1691" height="561" viewBox="0 0 1691 561" fill="none" xmlns="http://www.w3.org/2000/svg">
<path d="M155.914 406C151.647 406 148.447 405.2 146.314 403.6C144.447 402 143.514 399.333 143.514 395.6V343.2C140.047 340.8 133.514 338.667 123.914 336.8C114.314 334.933 105.247 333.733 96.7138 333.2C93.7805 338.8 91.6471 345.6 90.3138 353.6L88.7138 361.6C88.4471 363.467 87.6471 367.6 86.3138 374C84.9805 380.4 83.5138 386 81.9138 390.8C80.3138 395.333 78.7138 398.933 77.1138 401.6C66.9805 401.6 61.1138 398.933 59.5138 393.6C62.4471 389.333 65.7805 376.8 69.5138 356L82.7138 282.8C88.5805 248.133 93.9138 218.533 98.7138 194C103.78 169.467 109.114 148.933 114.714 132.4C120.847 114 126.714 104.8 132.314 104.8C137.914 104.8 142.18 105.867 145.114 108C145.114 118.667 147.647 144.4 152.714 185.2C158.047 225.2 160.714 252.533 160.714 267.2C160.714 281.333 162.18 301.6 165.114 328C167.78 354.933 169.114 376.4 169.114 392.4C169.114 401.467 164.714 406 155.914 406ZM135.114 320C137.247 320 139.914 319.6 143.114 318.8C142.314 307.067 140.98 292.533 139.114 275.2C132.98 214.933 129.914 178 129.914 164.4V161.2C127.247 163.867 123.514 176 118.714 197.6C114.18 218.933 109.914 241.867 105.914 266.4C101.914 290.933 99.7805 307.2 99.5138 315.2C110.714 318.4 122.58 320 135.114 320ZM346.158 407.2C342.958 407.2 340.558 406.4 338.958 404.8C337.358 402.933 336.158 399.867 335.358 395.6L332.958 388V387.2V386C332.958 377.2 323.758 347.2 305.358 296C287.224 244.8 272.958 206.933 262.558 182.4V383.6L264.158 386.4C264.424 386.933 264.958 387.867 265.758 389.2C266.558 390.533 266.958 391.867 266.958 393.2C266.958 396.667 265.758 399.6 263.358 402C260.958 404.4 258.024 405.6 254.558 405.6C246.024 405.6 241.758 397.467 241.758 381.2L241.358 312.8C241.091 292.267 240.958 269.333 240.958 244C240.958 235.467 241.358 223.067 242.158 206.8C242.958 190 243.358 177.6 243.358 169.6C243.358 157.067 248.158 147.2 257.758 140V142.4C259.358 141.867 260.424 141.6 260.958 141.6C267.091 141.6 274.824 152.267 284.158 173.6C291.624 190.667 298.291 208.667 304.158 227.6C310.291 246.533 318.291 273.467 328.158 308.4L332.158 322.8C338.291 344.4 342.958 359.867 346.158 369.2C351.491 311.867 354.158 244.133 354.158 166V160.8C353.891 159.2 353.758 157.467 353.758 155.6C353.758 147.6 356.958 143.6 363.358 143.6C367.091 143.6 369.891 145.067 371.758 148C373.891 150.933 374.958 154.667 374.958 159.2V189.2C374.424 230.267 372.824 274.8 370.158 322.8C367.491 370.8 364.291 397.867 360.558 404C352.824 406.133 348.024 407.2 346.158 407.2ZM557.564 407.2C554.364 407.2 551.964 406.4 550.364 404.8C548.764 402.933 547.564 399.867 546.764 395.6L544.364 388V387.2V386C544.364 377.2 535.164 347.2 516.764 296C498.63 244.8 484.364 206.933 473.964 182.4V383.6L475.564 386.4C475.83 386.933 476.364 387.867 477.164 389.2C477.964 390.533 478.364 391.867 478.364 393.2C478.364 396.667 477.164 399.6 474.764 402C472.364 404.4 469.43 405.6 465.964 405.6C457.43 405.6 453.164 397.467 453.164 381.2L452.764 312.8C452.497 292.267 452.364 269.333 452.364 244C452.364 235.467 452.764 223.067 453.564 206.8C454.364 190 454.764 177.6 454.764 169.6C454.764 157.067 459.564 147.2 469.164 140V142.4C470.764 141.867 471.83 141.6 472.364 141.6C478.497 141.6 486.23 152.267 495.564 173.6C503.03 190.667 509.697 208.667 515.564 227.6C521.697 246.533 529.697 273.467 539.564 308.4L543.564 322.8C549.697 344.4 554.364 359.867 557.564 369.2C562.897 311.867 565.564 244.133 565.564 166V160.8C565.297 159.2 565.164 157.467 565.164 155.6C565.164 147.6 568.364 143.6 574.764 143.6C578.497 143.6 581.297 145.067 583.164 148C585.297 150.933 586.364 154.667 586.364 159.2V189.2C585.83 230.267 584.23 274.8 581.564 322.8C578.897 370.8 575.697 397.867 571.964 404C564.23 406.133 559.43 407.2 557.564 407.2ZM679.77 405.6C656.57 405.6 644.97 401.6 644.97 393.6C644.97 387.2 649.103 384 657.37 384H661.77L665.77 384.4C667.903 384.4 669.37 383.733 670.17 382.4C670.97 381.067 671.37 378.667 671.37 375.2C671.37 370.667 671.103 363.6 670.57 354C669.77 347.6 668.837 336.133 667.77 319.6C665.37 278.8 664.17 248 664.17 227.2C664.17 219.733 664.303 212.933 664.57 206.8L664.97 186.4C664.97 177.6 664.57 170.267 663.77 164.4C659.503 165.467 656.437 166 654.57 166C648.17 166 644.97 162.8 644.97 156.4C644.97 153.2 646.97 150.4 650.97 148C654.97 145.6 660.037 143.867 666.17 142.8C676.837 140.667 686.303 139.6 694.57 139.6C697.77 139.6 700.437 140.8 702.57 143.2C704.97 145.333 706.17 147.867 706.17 150.8C706.17 153.733 705.237 156.267 703.37 158.4C701.77 160.533 699.637 161.6 696.97 161.6C695.37 161.6 694.037 161.467 692.97 161.2H689.77C687.103 161.2 685.103 161.867 683.77 163.2C682.703 164.267 682.17 166.4 682.17 169.6C682.17 195.467 683.77 234.4 686.97 286.4C687.503 296 688.57 310.133 690.17 328.8C691.503 341.067 692.17 353.6 692.17 366.4V381.6C693.77 381.333 696.437 381.2 700.17 381.2C711.37 381.2 716.97 385.867 716.97 395.2V397.6L706.97 404.4C706.703 404.4 705.77 404.533 704.17 404.8C702.837 404.8 700.17 404.8 696.17 404.8C687.637 405.333 682.17 405.6 679.77 405.6ZM788.404 411.2C784.938 411.2 781.738 410 778.804 407.6C776.138 405.2 774.671 402.267 774.404 398.8V388.4V380.4C774.138 378 774.004 375.2 774.004 372C774.004 366.4 773.604 357.867 772.804 346.4L772.004 320.8C772.004 307.733 772.404 288.267 773.204 262.4C774.271 239.2 774.804 219.733 774.804 204C774.804 200.267 774.404 194.667 773.604 187.2C772.804 179.467 772.404 173.867 772.404 170.4C772.404 151.467 778.004 142 789.204 142C798.004 142 808.138 143.733 819.604 147.2C831.338 150.667 837.204 154.8 837.204 159.6C837.204 162.267 836.004 164.8 833.604 167.2C831.471 169.333 828.804 171.067 825.604 172.4C814.404 168.4 804.271 165.733 795.204 164.4C795.471 168.4 795.604 174.133 795.604 181.6C795.604 192.267 795.471 201.867 795.204 210.4C794.404 223.2 794.004 232.8 794.004 239.2L795.204 245.6L801.604 245.2C803.738 244.933 806.404 244.8 809.604 244.8C822.404 244.8 828.804 248.533 828.804 256C828.804 258.933 827.604 261.467 825.204 263.6C822.804 265.467 819.738 266.4 816.004 266.4C811.204 266.4 807.471 266.133 804.804 265.6H794.804C795.338 272.533 795.604 282.667 795.604 296C795.604 309.333 795.471 321.333 795.204 332C794.404 348.267 794.004 360.4 794.004 368.4C794.004 383.333 794.271 390.8 794.804 390.8L808.004 390.4C812.538 390.133 818.004 390 824.404 390C834.538 390 839.604 393.2 839.604 399.6C839.604 403.333 837.871 406.133 834.404 408C831.204 410.133 827.204 411.2 822.404 411.2H788.404ZM910.876 411.6C906.076 410.8 901.943 409.067 898.476 406.4C895.276 403.733 893.41 400.267 892.876 396L897.276 389.2C898.876 389.2 901.41 389.733 904.876 390.8C908.876 391.6 911.943 392 914.076 392C918.876 392 923.143 389.867 926.876 385.6C930.876 381.333 933.81 375.733 935.676 368.8C939.143 356 940.876 344.533 940.876 334.4C940.876 316.8 935.276 298.267 924.076 278.8L919.676 271.2C914.61 262.4 910.343 254.533 906.876 247.6C903.41 240.667 900.476 233.2 898.076 225.2C894.876 214.8 893.276 204.4 893.276 194C893.276 182.267 895.943 170 901.276 157.2C903.943 151.067 907.676 146.133 912.476 142.4C917.543 138.4 923.143 136.4 929.276 136.4C934.076 136.4 938.476 138 942.476 141.2C946.743 144.133 948.876 147.733 948.876 152C948.876 154.4 947.943 156.267 946.076 157.6C944.21 158.933 941.943 159.6 939.276 159.6C936.343 159.6 933.543 158.8 930.876 157.2C925.01 157.467 920.343 162.667 916.876 172.8C913.943 182.133 912.476 189.867 912.476 196C912.476 203.733 913.676 211.6 916.076 219.6C918.476 227.333 921.543 234.4 925.276 240.8L934.076 256.8L948.076 283.2C951.81 290.667 954.743 299.333 956.876 309.2C959.276 319.067 960.476 329.067 960.476 339.2C960.476 355.467 956.743 370.933 949.276 385.6C945.543 393.067 940.21 399.067 933.276 403.6C926.61 408.133 919.143 410.4 910.876 410.4V411.6Z" fill="#F69EF8"/>
<path d="M155.914 406C151.647 406 148.447 405.2 146.314 403.6C144.447 402 143.514 399.333 143.514 395.6V343.2C140.047 340.8 133.514 338.667 123.914 336.8C114.314 334.933 105.247 333.733 96.7138 333.2C93.7805 338.8 91.6471 345.6 90.3138 353.6L88.7138 361.6C88.4471 363.467 87.6471 367.6 86.3138 374C84.9805 380.4 83.5138 386 81.9138 390.8C80.3138 395.333 78.7138 398.933 77.1138 401.6C66.9805 401.6 61.1138 398.933 59.5138 393.6C62.4471 389.333 65.7805 376.8 69.5138 356L82.7138 282.8C88.5805 248.133 93.9138 218.533 98.7138 194C103.78 169.467 109.114 148.933 114.714 132.4C120.847 114 126.714 104.8 132.314 104.8C137.914 104.8 142.18 105.867 145.114 108C145.114 118.667 147.647 144.4 152.714 185.2C158.047 225.2 160.714 252.533 160.714 267.2C160.714 281.333 162.18 301.6 165.114 328C167.78 354.933 169.114 376.4 169.114 392.4C169.114 401.467 164.714 406 155.914 406ZM135.114 320C137.247 320 139.914 319.6 143.114 318.8C142.314 307.067 140.98 292.533 139.114 275.2C132.98 214.933 129.914 178 129.914 164.4V161.2C127.247 163.867 123.514 176 118.714 197.6C114.18 218.933 109.914 241.867 105.914 266.4C101.914 290.933 99.7805 307.2 99.5138 315.2C110.714 318.4 122.58 320 135.114 320ZM346.158 407.2C342.958 407.2 340.558 406.4 338.958 404.8C337.358 402.933 336.158 399.867 335.358 395.6L332.958 388V387.2V386C332.958 377.2 323.758 347.2 305.358 296C287.224 244.8 272.958 206.933 262.558 182.4V383.6L264.158 386.4C264.424 386.933 264.958 387.867 265.758 389.2C266.558 390.533 266.958 391.867 266.958 393.2C266.958 396.667 265.758 399.6 263.358 402C260.958 404.4 258.024 405.6 254.558 405.6C246.024 405.6 241.758 397.467 241.758 381.2L241.358 312.8C241.091 292.267 240.958 269.333 240.958 244C240.958 235.467 241.358 223.067 242.158 206.8C242.958 190 243.358 177.6 243.358 169.6C243.358 157.067 248.158 147.2 257.758 140V142.4C259.358 141.867 260.424 141.6 260.958 141.6C267.091 141.6 274.824 152.267 284.158 173.6C291.624 190.667 298.291 208.667 304.158 227.6C310.291 246.533 318.291 273.467 328.158 308.4L332.158 322.8C338.291 344.4 342.958 359.867 346.158 369.2C351.491 311.867 354.158 244.133 354.158 166V160.8C353.891 159.2 353.758 157.467 353.758 155.6C353.758 147.6 356.958 143.6 363.358 143.6C367.091 143.6 369.891 145.067 371.758 148C373.891 150.933 374.958 154.667 374.958 159.2V189.2C374.424 230.267 372.824 274.8 370.158 322.8C367.491 370.8 364.291 397.867 360.558 404C352.824 406.133 348.024 407.2 346.158 407.2ZM557.564 407.2C554.364 407.2 551.964 406.4 550.364 404.8C548.764 402.933 547.564 399.867 546.764 395.6L544.364 388V387.2V386C544.364 377.2 535.164 347.2 516.764 296C498.63 244.8 484.364 206.933 473.964 182.4V383.6L475.564 386.4C475.83 386.933 476.364 387.867 477.164 389.2C477.964 390.533 478.364 391.867 478.364 393.2C478.364 396.667 477.164 399.6 474.764 402C472.364 404.4 469.43 405.6 465.964 405.6C457.43 405.6 453.164 397.467 453.164 381.2L452.764 312.8C452.497 292.267 452.364 269.333 452.364 244C452.364 235.467 452.764 223.067 453.564 206.8C454.364 190 454.764 177.6 454.764 169.6C454.764 157.067 459.564 147.2 469.164 140V142.4C470.764 141.867 471.83 141.6 472.364 141.6C478.497 141.6 486.23 152.267 495.564 173.6C503.03 190.667 509.697 208.667 515.564 227.6C521.697 246.533 529.697 273.467 539.564 308.4L543.564 322.8C549.697 344.4 554.364 359.867 557.564 369.2C562.897 311.867 565.564 244.133 565.564 166V160.8C565.297 159.2 565.164 157.467 565.164 155.6C565.164 147.6 568.364 143.6 574.764 143.6C578.497 143.6 581.297 145.067 583.164 148C585.297 150.933 586.364 154.667 586.364 159.2V189.2C585.83 230.267 584.23 274.8 581.564 322.8C578.897 370.8 575.697 397.867 571.964 404C564.23 406.133 559.43 407.2 557.564 407.2ZM679.77 405.6C656.57 405.6 644.97 401.6 644.97 393.6C644.97 387.2 649.103 384 657.37 384H661.77L665.77 384.4C667.903 384.4 669.37 383.733 670.17 382.4C670.97 381.067 671.37 378.667 671.37 375.2C671.37 370.667 671.103 363.6 670.57 354C669.77 347.6 668.837 336.133 667.77 319.6C665.37 278.8 664.17 248 664.17 227.2C664.17 219.733 664.303 212.933 664.57 206.8L664.97 186.4C664.97 177.6 664.57 170.267 663.77 164.4C659.503 165.467 656.437 166 654.57 166C648.17 166 644.97 162.8 644.97 156.4C644.97 153.2 646.97 150.4 650.97 148C654.97 145.6 660.037 143.867 666.17 142.8C676.837 140.667 686.303 139.6 694.57 139.6C697.77 139.6 700.437 140.8 702.57 143.2C704.97 145.333 706.17 147.867 706.17 150.8C706.17 153.733 705.237 156.267 703.37 158.4C701.77 160.533 699.637 161.6 696.97 161.6C695.37 161.6 694.037 161.467 692.97 161.2H689.77C687.103 161.2 685.103 161.867 683.77 163.2C682.703 164.267 682.17 166.4 682.17 169.6C682.17 195.467 683.77 234.4 686.97 286.4C687.503 296 688.57 310.133 690.17 328.8C691.503 341.067 692.17 353.6 692.17 366.4V381.6C693.77 381.333 696.437 381.2 700.17 381.2C711.37 381.2 716.97 385.867 716.97 395.2V397.6L706.97 404.4C706.703 404.4 705.77 404.533 704.17 404.8C702.837 404.8 700.17 404.8 696.17 404.8C687.637 405.333 682.17 405.6 679.77 405.6ZM788.404 411.2C784.938 411.2 781.738 410 778.804 407.6C776.138 405.2 774.671 402.267 774.404 398.8V388.4V380.4C774.138 378 774.004 375.2 774.004 372C774.004 366.4 773.604 357.867 772.804 346.4L772.004 320.8C772.004 307.733 772.404 288.267 773.204 262.4C774.271 239.2 774.804 219.733 774.804 204C774.804 200.267 774.404 194.667 773.604 187.2C772.804 179.467 772.404 173.867 772.404 170.4C772.404 151.467 778.004 142 789.204 142C798.004 142 808.138 143.733 819.604 147.2C831.338 150.667 837.204 154.8 837.204 159.6C837.204 162.267 836.004 164.8 833.604 167.2C831.471 169.333 828.804 171.067 825.604 172.4C814.404 168.4 804.271 165.733 795.204 164.4C795.471 168.4 795.604 174.133 795.604 181.6C795.604 192.267 795.471 201.867 795.204 210.4C794.404 223.2 794.004 232.8 794.004 239.2L795.204 245.6L801.604 245.2C803.738 244.933 806.404 244.8 809.604 244.8C822.404 244.8 828.804 248.533 828.804 256C828.804 258.933 827.604 261.467 825.204 263.6C822.804 265.467 819.738 266.4 816.004 266.4C811.204 266.4 807.471 266.133 804.804 265.6H794.804C795.338 272.533 795.604 282.667 795.604 296C795.604 309.333 795.471 321.333 795.204 332C794.404 348.267 794.004 360.4 794.004 368.4C794.004 383.333 794.271 390.8 794.804 390.8L808.004 390.4C812.538 390.133 818.004 390 824.404 390C834.538 390 839.604 393.2 839.604 399.6C839.604 403.333 837.871 406.133 834.404 408C831.204 410.133 827.204 411.2 822.404 411.2H788.404ZM910.876 411.6C906.076 410.8 901.943 409.067 898.476 406.4C895.276 403.733 893.41 400.267 892.876 396L897.276 389.2C898.876 389.2 901.41 389.733 904.876 390.8C908.876 391.6 911.943 392 914.076 392C918.876 392 923.143 389.867 926.876 385.6C930.876 381.333 933.81 375.733 935.676 368.8C939.143 356 940.876 344.533 940.876 334.4C940.876 316.8 935.276 298.267 924.076 278.8L919.676 271.2C914.61 262.4 910.343 254.533 906.876 247.6C903.41 240.667 900.476 233.2 898.076 225.2C894.876 214.8 893.276 204.4 893.276 194C893.276 182.267 895.943 170 901.276 157.2C903.943 151.067 907.676 146.133 912.476 142.4C917.543 138.4 923.143 136.4 929.276 136.4C934.076 136.4 938.476 138 942.476 141.2C946.743 144.133 948.876 147.733 948.876 152C948.876 154.4 947.943 156.267 946.076 157.6C944.21 158.933 941.943 159.6 939.276 159.6C936.343 159.6 933.543 158.8 930.876 157.2C925.01 157.467 920.343 162.667 916.876 172.8C913.943 182.133 912.476 189.867 912.476 196C912.476 203.733 913.676 211.6 916.076 219.6C918.476 227.333 921.543 234.4 925.276 240.8L934.076 256.8L948.076 283.2C951.81 290.667 954.743 299.333 956.876 309.2C959.276 319.067 960.476 329.067 960.476 339.2C960.476 355.467 956.743 370.933 949.276 385.6C945.543 393.067 940.21 399.067 933.276 403.6C926.61 408.133 919.143 410.4 910.876 410.4V411.6Z" fill="url(#paint0_linear_22_6)"/>
<path d="M1488.27 68C1457.01 69.8268 1237.4 87.602 1222.05 215.585C1220.18 229.265 1219.12 243.007 1218.43 256.759L1326.41 165.066C1330.19 161.859 1336.31 161.859 1340.09 165.066C1343.86 168.273 1343.86 173.471 1340.09 176.678L1183.43 309.705C1177.77 314.513 1177.77 322.313 1183.43 327.121C1189.09 331.929 1198.27 331.929 1203.94 327.121L1238.43 297.836C1263.84 297.764 1289.23 296.538 1314.47 294.059C1346.76 291.268 1373.04 280.477 1394.51 265.046H1333.57L1422.18 239.964C1428.97 232.323 1435.08 224.205 1440.57 215.785H1391.58L1455.9 188.481C1481.2 136.176 1487.18 81.4751 1488.27 68Z" fill="#F69EF8"/>
<path d="M1166.19 355.455C1166.19 355.455 1146.06 571.99 1294.14 413.138C1442.21 254.286 1570.16 538.268 1686.09 355.455" stroke="#F69EF8" stroke-width="10"/>
<defs>
<linearGradient id="paint0_linear_22_6" x1="515.409" y1="0" x2="515.409" y2="561" gradientUnits="userSpaceOnUse">
<stop stop-color="#5C6BC0"/>
<stop offset="1" stop-color="#C05CB0"/>
</linearGradient>
</defs>
</svg>
