<svg width="1096" height="363" viewBox="0 0 1096 363" fill="none" xmlns="http://www.w3.org/2000/svg">
<path d="M74.6634 293C71.5914 293 69.2874 292.424 67.7514 291.272C66.4074 290.12 65.7354 288.2 65.7354 285.512V247.784C63.2394 246.056 58.5354 244.52 51.6234 243.176C44.7114 241.832 38.1834 240.968 32.0394 240.584C29.9274 244.616 28.3914 249.512 27.4314 255.272L26.2794 261.032C26.0874 262.376 25.5114 265.352 24.5514 269.96C23.5914 274.568 22.5354 278.6 21.3834 282.056C20.2314 285.32 19.0794 287.912 17.9274 289.832C10.6314 289.832 6.40738 287.912 5.25538 284.072C7.36738 281 9.76738 271.976 12.4554 257L21.9594 204.296C26.1834 179.336 30.0234 158.024 33.4794 140.36C37.1274 122.696 40.9674 107.912 44.9994 96.008C49.4154 82.76 53.6394 76.136 57.6714 76.136C61.7034 76.136 64.7754 76.904 66.8874 78.44C66.8874 86.12 68.7114 104.648 72.3594 134.024C76.1994 162.824 78.1194 182.504 78.1194 193.064C78.1194 203.24 79.1754 217.832 81.2874 236.84C83.2074 256.232 84.1674 271.688 84.1674 283.208C84.1674 289.736 80.9994 293 74.6634 293ZM59.6874 231.08C61.2234 231.08 63.1434 230.792 65.4474 230.216C64.8714 221.768 63.9114 211.304 62.5674 198.824C58.1514 155.432 55.9434 128.84 55.9434 119.048V116.744C54.0234 118.664 51.3354 127.4 47.8794 142.952C44.6154 158.312 41.5434 174.824 38.6634 192.488C35.7834 210.152 34.2474 221.864 34.0554 227.624C42.1194 229.928 50.6634 231.08 59.6874 231.08ZM211.639 293.864C209.335 293.864 207.607 293.288 206.455 292.136C205.303 290.792 204.439 288.584 203.863 285.512L202.135 280.04V279.464V278.6C202.135 272.264 195.511 250.664 182.263 213.8C169.207 176.936 158.935 149.672 151.447 132.008V276.872L152.599 278.888C152.791 279.272 153.175 279.944 153.751 280.904C154.327 281.864 154.615 282.824 154.615 283.784C154.615 286.28 153.751 288.392 152.023 290.12C150.295 291.848 148.183 292.712 145.687 292.712C139.543 292.712 136.471 286.856 136.471 275.144L136.183 225.896C135.991 211.112 135.895 194.6 135.895 176.36C135.895 170.216 136.183 161.288 136.759 149.576C137.335 137.48 137.623 128.552 137.623 122.792C137.623 113.768 141.079 106.664 147.991 101.48V103.208C149.143 102.824 149.911 102.632 150.295 102.632C154.711 102.632 160.279 110.312 166.999 125.672C172.375 137.96 177.175 150.92 181.399 164.552C185.815 178.184 191.575 197.576 198.679 222.728L201.559 233.096C205.975 248.648 209.335 259.784 211.639 266.504C215.479 225.224 217.399 176.456 217.399 120.2V116.456C217.207 115.304 217.111 114.056 217.111 112.712C217.111 106.952 219.415 104.072 224.023 104.072C226.711 104.072 228.727 105.128 230.071 107.24C231.607 109.352 232.375 112.04 232.375 115.304V136.904C231.991 166.472 230.839 198.536 228.919 233.096C226.999 267.656 224.695 287.144 222.007 291.56C216.439 293.096 212.983 293.864 211.639 293.864ZM363.851 293.864C361.547 293.864 359.819 293.288 358.667 292.136C357.515 290.792 356.651 288.584 356.075 285.512L354.347 280.04V279.464V278.6C354.347 272.264 347.723 250.664 334.475 213.8C321.419 176.936 311.147 149.672 303.659 132.008V276.872L304.811 278.888C305.003 279.272 305.387 279.944 305.963 280.904C306.539 281.864 306.827 282.824 306.827 283.784C306.827 286.28 305.963 288.392 304.235 290.12C302.507 291.848 300.395 292.712 297.899 292.712C291.755 292.712 288.683 286.856 288.683 275.144L288.395 225.896C288.203 211.112 288.107 194.6 288.107 176.36C288.107 170.216 288.395 161.288 288.971 149.576C289.547 137.48 289.835 128.552 289.835 122.792C289.835 113.768 293.291 106.664 300.203 101.48V103.208C301.355 102.824 302.123 102.632 302.507 102.632C306.923 102.632 312.491 110.312 319.211 125.672C324.587 137.96 329.387 150.92 333.611 164.552C338.027 178.184 343.787 197.576 350.891 222.728L353.771 233.096C358.187 248.648 361.547 259.784 363.851 266.504C367.691 225.224 369.611 176.456 369.611 120.2V116.456C369.419 115.304 369.323 114.056 369.323 112.712C369.323 106.952 371.627 104.072 376.235 104.072C378.923 104.072 380.939 105.128 382.283 107.24C383.819 109.352 384.587 112.04 384.587 115.304V136.904C384.203 166.472 383.051 198.536 381.131 233.096C379.211 267.656 376.907 287.144 374.219 291.56C368.651 293.096 365.195 293.864 363.851 293.864ZM451.84 292.712C435.136 292.712 426.784 289.832 426.784 284.072C426.784 279.464 429.76 277.16 435.712 277.16H438.88L441.76 277.448C443.296 277.448 444.352 276.968 444.928 276.008C445.504 275.048 445.792 273.32 445.792 270.824C445.792 267.56 445.6 262.472 445.216 255.56C444.64 250.952 443.968 242.696 443.2 230.792C441.472 201.416 440.608 179.24 440.608 164.264C440.608 158.888 440.704 153.992 440.896 149.576L441.184 134.888C441.184 128.552 440.896 123.272 440.32 119.048C437.248 119.816 435.04 120.2 433.696 120.2C429.088 120.2 426.784 117.896 426.784 113.288C426.784 110.984 428.224 108.968 431.104 107.24C433.984 105.512 437.632 104.264 442.048 103.496C449.728 101.96 456.544 101.192 462.496 101.192C464.8 101.192 466.72 102.056 468.256 103.784C469.984 105.32 470.848 107.144 470.848 109.256C470.848 111.368 470.176 113.192 468.832 114.728C467.68 116.264 466.144 117.032 464.224 117.032C463.072 117.032 462.112 116.936 461.344 116.744H459.04C457.12 116.744 455.68 117.224 454.72 118.184C453.952 118.952 453.568 120.488 453.568 122.792C453.568 141.416 454.72 169.448 457.024 206.888C457.408 213.8 458.176 223.976 459.328 237.416C460.288 246.248 460.768 255.272 460.768 264.488V275.432C461.92 275.24 463.84 275.144 466.528 275.144C474.592 275.144 478.624 278.504 478.624 285.224V286.952L471.424 291.848C471.232 291.848 470.56 291.944 469.408 292.136C468.448 292.136 466.528 292.136 463.648 292.136C457.504 292.52 453.568 292.712 451.84 292.712ZM530.057 296.744C527.561 296.744 525.257 295.88 523.145 294.152C521.225 292.424 520.169 290.312 519.977 287.816V280.328V274.568C519.785 272.84 519.689 270.824 519.689 268.52C519.689 264.488 519.401 258.344 518.825 250.088L518.249 231.656C518.249 222.248 518.537 208.232 519.113 189.608C519.881 172.904 520.265 158.888 520.265 147.56C520.265 144.872 519.977 140.84 519.401 135.464C518.825 129.896 518.537 125.864 518.537 123.368C518.537 109.736 522.569 102.92 530.633 102.92C536.969 102.92 544.265 104.168 552.521 106.664C560.969 109.16 565.193 112.136 565.193 115.592C565.193 117.512 564.329 119.336 562.601 121.064C561.065 122.6 559.145 123.848 556.841 124.808C548.777 121.928 541.481 120.008 534.953 119.048C535.145 121.928 535.241 126.056 535.241 131.432C535.241 139.112 535.145 146.024 534.953 152.168C534.377 161.384 534.089 168.296 534.089 172.904L534.953 177.512L539.561 177.224C541.097 177.032 543.017 176.936 545.321 176.936C554.537 176.936 559.145 179.624 559.145 185C559.145 187.112 558.281 188.936 556.553 190.472C554.825 191.816 552.617 192.488 549.929 192.488C546.473 192.488 543.785 192.296 541.865 191.912H534.665C535.049 196.904 535.241 204.2 535.241 213.8C535.241 223.4 535.145 232.04 534.953 239.72C534.377 251.432 534.089 260.168 534.089 265.928C534.089 276.68 534.281 282.056 534.665 282.056L544.169 281.768C547.433 281.576 551.369 281.48 555.977 281.48C563.273 281.48 566.921 283.784 566.921 288.392C566.921 291.08 565.673 293.096 563.177 294.44C560.873 295.976 557.993 296.744 554.537 296.744H530.057ZM618.236 297.032C614.78 296.456 611.804 295.208 609.308 293.288C607.004 291.368 605.66 288.872 605.276 285.8L608.444 280.904C609.596 280.904 611.42 281.288 613.916 282.056C616.796 282.632 619.004 282.92 620.54 282.92C623.996 282.92 627.068 281.384 629.756 278.312C632.636 275.24 634.748 271.208 636.092 266.216C638.588 257 639.836 248.744 639.836 241.448C639.836 228.776 635.804 215.432 627.74 201.416L624.572 195.944C620.924 189.608 617.852 183.944 615.356 178.952C612.86 173.96 610.748 168.584 609.02 162.824C606.716 155.336 605.564 147.848 605.564 140.36C605.564 131.912 607.484 123.08 611.324 113.864C613.244 109.448 615.932 105.896 619.388 103.208C623.036 100.328 627.068 98.888 631.484 98.888C634.94 98.888 638.108 100.04 640.988 102.344C644.06 104.456 645.596 107.048 645.596 110.12C645.596 111.848 644.924 113.192 643.58 114.152C642.236 115.112 640.604 115.592 638.684 115.592C636.572 115.592 634.556 115.016 632.636 113.864C628.412 114.056 625.052 117.8 622.556 125.096C620.444 131.816 619.388 137.384 619.388 141.8C619.388 147.368 620.252 153.032 621.98 158.792C623.708 164.36 625.916 169.448 628.604 174.056L634.94 185.576L645.02 204.584C647.708 209.96 649.82 216.2 651.356 223.304C653.084 230.408 653.948 237.608 653.948 244.904C653.948 256.616 651.26 267.752 645.884 278.312C643.196 283.688 639.356 288.008 634.364 291.272C629.564 294.536 624.188 296.168 618.236 296.168V297.032Z" fill="#F69EF8"/>
<path d="M74.6634 293C71.5914 293 69.2874 292.424 67.7514 291.272C66.4074 290.12 65.7354 288.2 65.7354 285.512V247.784C63.2394 246.056 58.5354 244.52 51.6234 243.176C44.7114 241.832 38.1834 240.968 32.0394 240.584C29.9274 244.616 28.3914 249.512 27.4314 255.272L26.2794 261.032C26.0874 262.376 25.5114 265.352 24.5514 269.96C23.5914 274.568 22.5354 278.6 21.3834 282.056C20.2314 285.32 19.0794 287.912 17.9274 289.832C10.6314 289.832 6.40738 287.912 5.25538 284.072C7.36738 281 9.76738 271.976 12.4554 257L21.9594 204.296C26.1834 179.336 30.0234 158.024 33.4794 140.36C37.1274 122.696 40.9674 107.912 44.9994 96.008C49.4154 82.76 53.6394 76.136 57.6714 76.136C61.7034 76.136 64.7754 76.904 66.8874 78.44C66.8874 86.12 68.7114 104.648 72.3594 134.024C76.1994 162.824 78.1194 182.504 78.1194 193.064C78.1194 203.24 79.1754 217.832 81.2874 236.84C83.2074 256.232 84.1674 271.688 84.1674 283.208C84.1674 289.736 80.9994 293 74.6634 293ZM59.6874 231.08C61.2234 231.08 63.1434 230.792 65.4474 230.216C64.8714 221.768 63.9114 211.304 62.5674 198.824C58.1514 155.432 55.9434 128.84 55.9434 119.048V116.744C54.0234 118.664 51.3354 127.4 47.8794 142.952C44.6154 158.312 41.5434 174.824 38.6634 192.488C35.7834 210.152 34.2474 221.864 34.0554 227.624C42.1194 229.928 50.6634 231.08 59.6874 231.08ZM211.639 293.864C209.335 293.864 207.607 293.288 206.455 292.136C205.303 290.792 204.439 288.584 203.863 285.512L202.135 280.04V279.464V278.6C202.135 272.264 195.511 250.664 182.263 213.8C169.207 176.936 158.935 149.672 151.447 132.008V276.872L152.599 278.888C152.791 279.272 153.175 279.944 153.751 280.904C154.327 281.864 154.615 282.824 154.615 283.784C154.615 286.28 153.751 288.392 152.023 290.12C150.295 291.848 148.183 292.712 145.687 292.712C139.543 292.712 136.471 286.856 136.471 275.144L136.183 225.896C135.991 211.112 135.895 194.6 135.895 176.36C135.895 170.216 136.183 161.288 136.759 149.576C137.335 137.48 137.623 128.552 137.623 122.792C137.623 113.768 141.079 106.664 147.991 101.48V103.208C149.143 102.824 149.911 102.632 150.295 102.632C154.711 102.632 160.279 110.312 166.999 125.672C172.375 137.96 177.175 150.92 181.399 164.552C185.815 178.184 191.575 197.576 198.679 222.728L201.559 233.096C205.975 248.648 209.335 259.784 211.639 266.504C215.479 225.224 217.399 176.456 217.399 120.2V116.456C217.207 115.304 217.111 114.056 217.111 112.712C217.111 106.952 219.415 104.072 224.023 104.072C226.711 104.072 228.727 105.128 230.071 107.24C231.607 109.352 232.375 112.04 232.375 115.304V136.904C231.991 166.472 230.839 198.536 228.919 233.096C226.999 267.656 224.695 287.144 222.007 291.56C216.439 293.096 212.983 293.864 211.639 293.864ZM363.851 293.864C361.547 293.864 359.819 293.288 358.667 292.136C357.515 290.792 356.651 288.584 356.075 285.512L354.347 280.04V279.464V278.6C354.347 272.264 347.723 250.664 334.475 213.8C321.419 176.936 311.147 149.672 303.659 132.008V276.872L304.811 278.888C305.003 279.272 305.387 279.944 305.963 280.904C306.539 281.864 306.827 282.824 306.827 283.784C306.827 286.28 305.963 288.392 304.235 290.12C302.507 291.848 300.395 292.712 297.899 292.712C291.755 292.712 288.683 286.856 288.683 275.144L288.395 225.896C288.203 211.112 288.107 194.6 288.107 176.36C288.107 170.216 288.395 161.288 288.971 149.576C289.547 137.48 289.835 128.552 289.835 122.792C289.835 113.768 293.291 106.664 300.203 101.48V103.208C301.355 102.824 302.123 102.632 302.507 102.632C306.923 102.632 312.491 110.312 319.211 125.672C324.587 137.96 329.387 150.92 333.611 164.552C338.027 178.184 343.787 197.576 350.891 222.728L353.771 233.096C358.187 248.648 361.547 259.784 363.851 266.504C367.691 225.224 369.611 176.456 369.611 120.2V116.456C369.419 115.304 369.323 114.056 369.323 112.712C369.323 106.952 371.627 104.072 376.235 104.072C378.923 104.072 380.939 105.128 382.283 107.24C383.819 109.352 384.587 112.04 384.587 115.304V136.904C384.203 166.472 383.051 198.536 381.131 233.096C379.211 267.656 376.907 287.144 374.219 291.56C368.651 293.096 365.195 293.864 363.851 293.864ZM451.84 292.712C435.136 292.712 426.784 289.832 426.784 284.072C426.784 279.464 429.76 277.16 435.712 277.16H438.88L441.76 277.448C443.296 277.448 444.352 276.968 444.928 276.008C445.504 275.048 445.792 273.32 445.792 270.824C445.792 267.56 445.6 262.472 445.216 255.56C444.64 250.952 443.968 242.696 443.2 230.792C441.472 201.416 440.608 179.24 440.608 164.264C440.608 158.888 440.704 153.992 440.896 149.576L441.184 134.888C441.184 128.552 440.896 123.272 440.32 119.048C437.248 119.816 435.04 120.2 433.696 120.2C429.088 120.2 426.784 117.896 426.784 113.288C426.784 110.984 428.224 108.968 431.104 107.24C433.984 105.512 437.632 104.264 442.048 103.496C449.728 101.96 456.544 101.192 462.496 101.192C464.8 101.192 466.72 102.056 468.256 103.784C469.984 105.32 470.848 107.144 470.848 109.256C470.848 111.368 470.176 113.192 468.832 114.728C467.68 116.264 466.144 117.032 464.224 117.032C463.072 117.032 462.112 116.936 461.344 116.744H459.04C457.12 116.744 455.68 117.224 454.72 118.184C453.952 118.952 453.568 120.488 453.568 122.792C453.568 141.416 454.72 169.448 457.024 206.888C457.408 213.8 458.176 223.976 459.328 237.416C460.288 246.248 460.768 255.272 460.768 264.488V275.432C461.92 275.24 463.84 275.144 466.528 275.144C474.592 275.144 478.624 278.504 478.624 285.224V286.952L471.424 291.848C471.232 291.848 470.56 291.944 469.408 292.136C468.448 292.136 466.528 292.136 463.648 292.136C457.504 292.52 453.568 292.712 451.84 292.712ZM530.057 296.744C527.561 296.744 525.257 295.88 523.145 294.152C521.225 292.424 520.169 290.312 519.977 287.816V280.328V274.568C519.785 272.84 519.689 270.824 519.689 268.52C519.689 264.488 519.401 258.344 518.825 250.088L518.249 231.656C518.249 222.248 518.537 208.232 519.113 189.608C519.881 172.904 520.265 158.888 520.265 147.56C520.265 144.872 519.977 140.84 519.401 135.464C518.825 129.896 518.537 125.864 518.537 123.368C518.537 109.736 522.569 102.92 530.633 102.92C536.969 102.92 544.265 104.168 552.521 106.664C560.969 109.16 565.193 112.136 565.193 115.592C565.193 117.512 564.329 119.336 562.601 121.064C561.065 122.6 559.145 123.848 556.841 124.808C548.777 121.928 541.481 120.008 534.953 119.048C535.145 121.928 535.241 126.056 535.241 131.432C535.241 139.112 535.145 146.024 534.953 152.168C534.377 161.384 534.089 168.296 534.089 172.904L534.953 177.512L539.561 177.224C541.097 177.032 543.017 176.936 545.321 176.936C554.537 176.936 559.145 179.624 559.145 185C559.145 187.112 558.281 188.936 556.553 190.472C554.825 191.816 552.617 192.488 549.929 192.488C546.473 192.488 543.785 192.296 541.865 191.912H534.665C535.049 196.904 535.241 204.2 535.241 213.8C535.241 223.4 535.145 232.04 534.953 239.72C534.377 251.432 534.089 260.168 534.089 265.928C534.089 276.68 534.281 282.056 534.665 282.056L544.169 281.768C547.433 281.576 551.369 281.48 555.977 281.48C563.273 281.48 566.921 283.784 566.921 288.392C566.921 291.08 565.673 293.096 563.177 294.44C560.873 295.976 557.993 296.744 554.537 296.744H530.057ZM618.236 297.032C614.78 296.456 611.804 295.208 609.308 293.288C607.004 291.368 605.66 288.872 605.276 285.8L608.444 280.904C609.596 280.904 611.42 281.288 613.916 282.056C616.796 282.632 619.004 282.92 620.54 282.92C623.996 282.92 627.068 281.384 629.756 278.312C632.636 275.24 634.748 271.208 636.092 266.216C638.588 257 639.836 248.744 639.836 241.448C639.836 228.776 635.804 215.432 627.74 201.416L624.572 195.944C620.924 189.608 617.852 183.944 615.356 178.952C612.86 173.96 610.748 168.584 609.02 162.824C606.716 155.336 605.564 147.848 605.564 140.36C605.564 131.912 607.484 123.08 611.324 113.864C613.244 109.448 615.932 105.896 619.388 103.208C623.036 100.328 627.068 98.888 631.484 98.888C634.94 98.888 638.108 100.04 640.988 102.344C644.06 104.456 645.596 107.048 645.596 110.12C645.596 111.848 644.924 113.192 643.58 114.152C642.236 115.112 640.604 115.592 638.684 115.592C636.572 115.592 634.556 115.016 632.636 113.864C628.412 114.056 625.052 117.8 622.556 125.096C620.444 131.816 619.388 137.384 619.388 141.8C619.388 147.368 620.252 153.032 621.98 158.792C623.708 164.36 625.916 169.448 628.604 174.056L634.94 185.576L645.02 204.584C647.708 209.96 649.82 216.2 651.356 223.304C653.084 230.408 653.948 237.608 653.948 244.904C653.948 256.616 651.26 267.752 645.884 278.312C643.196 283.688 639.356 288.008 634.364 291.272C629.564 294.536 624.188 296.168 618.236 296.168V297.032Z" fill="url(#paint0_linear_22_2)"/>
<path d="M962.998 44C942.771 45.182 800.67 56.6836 790.736 139.496C789.529 148.348 788.846 157.24 788.396 166.138L858.268 106.807C860.709 104.732 864.674 104.732 867.115 106.807C869.557 108.883 869.557 112.246 867.115 114.321L765.748 200.397C762.084 203.509 762.084 208.555 765.748 211.667C769.412 214.778 775.354 214.778 779.021 211.667L801.338 192.718C817.779 192.671 834.209 191.877 850.541 190.274C871.432 188.467 888.439 181.485 902.33 171.501H862.896L920.236 155.271C924.631 150.327 928.584 145.074 932.131 139.625H900.436L942.053 121.958C958.424 88.1139 962.291 52.7192 962.998 44Z" fill="#F69EF8"/>
<path d="M754.595 230C754.595 230 741.571 370.111 837.384 267.325C933.197 164.538 1015.99 348.291 1091 230" stroke="#F69EF8" stroke-width="10"/>
<defs>
<linearGradient id="paint0_linear_22_2" x1="333.5" y1="0" x2="333.5" y2="363" gradientUnits="userSpaceOnUse">
<stop stop-color="#5C6BC0"/>
<stop offset="1" stop-color="#C05CB0"/>
</linearGradient>
</defs>
</svg>
